<svg xmlns="http://www.w3.org/2000/svg" xmlns:xlink="http://www.w3.org/1999/xlink" width="500" zoomAndPan="magnify" viewBox="0 0 375 374.999991" height="500" preserveAspectRatio="xMidYMid meet" version="1.0"><defs><g/></defs><g fill="#ffffff" fill-opacity="1"><g transform="translate(15.738285, 215.999986)"><g><path d="M 23.421875 0.765625 C 19.753906 0.765625 16.492188 0.3125 13.640625 -0.59375 C 10.785156 -1.5 8.40625 -2.6875 6.5 -4.15625 C 4.601562 -5.625 3.144531 -7.238281 2.125 -9 L 7.875 -16 L 8.78125 -16 C 10.375 -13.644531 12.390625 -11.769531 14.828125 -10.375 C 17.273438 -8.976562 20.140625 -8.28125 23.421875 -8.28125 C 26.210938 -8.28125 28.316406 -8.867188 29.734375 -10.046875 C 31.160156 -11.222656 31.875 -12.847656 31.875 -14.921875 C 31.875 -16.171875 31.644531 -17.21875 31.1875 -18.0625 C 30.726562 -18.90625 29.96875 -19.628906 28.90625 -20.234375 C 27.84375 -20.835938 26.410156 -21.351562 24.609375 -21.78125 L 17.8125 -23.34375 C 13.070312 -24.425781 9.535156 -26.222656 7.203125 -28.734375 C 4.878906 -31.253906 3.71875 -34.523438 3.71875 -38.546875 C 3.71875 -41.535156 4.460938 -44.160156 5.953125 -46.421875 C 7.453125 -48.691406 9.628906 -50.453125 12.484375 -51.703125 C 15.335938 -52.953125 18.753906 -53.578125 22.734375 -53.578125 C 26.796875 -53.578125 30.28125 -53.039062 33.1875 -51.96875 C 36.09375 -50.90625 38.546875 -49.265625 40.546875 -47.046875 L 35.375 -39.96875 L 34.46875 -39.96875 C 32.976562 -41.53125 31.269531 -42.703125 29.34375 -43.484375 C 27.414062 -44.265625 25.210938 -44.65625 22.734375 -44.65625 C 19.859375 -44.65625 17.675781 -44.148438 16.1875 -43.140625 C 14.695312 -42.128906 13.953125 -40.734375 13.953125 -38.953125 C 13.953125 -37.285156 14.472656 -35.957031 15.515625 -34.96875 C 16.566406 -33.988281 18.378906 -33.222656 20.953125 -32.671875 L 27.890625 -31.21875 C 33.023438 -30.132812 36.75 -28.296875 39.0625 -25.703125 C 41.375 -23.117188 42.53125 -19.742188 42.53125 -15.578125 C 42.53125 -12.273438 41.816406 -9.398438 40.390625 -6.953125 C 38.972656 -4.503906 36.832031 -2.601562 33.96875 -1.25 C 31.101562 0.09375 27.585938 0.765625 23.421875 0.765625 Z M 23.421875 0.765625 "/></g></g></g><g fill="#ffffff" fill-opacity="1"><g transform="translate(61.116303, 215.999986)"><g><path d="M 5.75 0 L 5.75 -55.859375 L 15.75 -55.859375 L 15.75 -34.65625 L 16.515625 -34.5 C 17.835938 -36.457031 19.460938 -37.960938 21.390625 -39.015625 C 23.316406 -40.078125 25.640625 -40.609375 28.359375 -40.609375 C 37.148438 -40.609375 41.546875 -35.625 41.546875 -25.65625 L 41.546875 0 L 31.546875 0 L 31.546875 -24.390625 C 31.546875 -27.109375 31.003906 -29.082031 29.921875 -30.3125 C 28.835938 -31.539062 27.148438 -32.15625 24.859375 -32.15625 C 22.066406 -32.15625 19.847656 -31.222656 18.203125 -29.359375 C 16.566406 -27.492188 15.75 -24.582031 15.75 -20.625 L 15.75 0 Z M 5.75 0 "/></g></g></g><g fill="#ffffff" fill-opacity="1"><g transform="translate(107.794965, 215.999986)"><g><path d="M 18.25 0.765625 C 13.769531 0.765625 10.460938 -0.457031 8.328125 -2.90625 C 6.191406 -5.351562 5.125 -8.863281 5.125 -13.4375 L 5.125 -39.859375 L 15.140625 -39.859375 L 15.140625 -14.703125 C 15.140625 -12.273438 15.660156 -10.5 16.703125 -9.375 C 17.753906 -8.257812 19.378906 -7.703125 21.578125 -7.703125 C 24.347656 -7.703125 26.503906 -8.609375 28.046875 -10.421875 C 29.585938 -12.242188 30.359375 -15.101562 30.359375 -19 L 30.359375 -39.859375 L 40.359375 -39.859375 L 40.359375 0 L 30.75 0 L 30.75 -5.859375 L 29.984375 -6.03125 C 28.710938 -3.75 27.15625 -2.046875 25.3125 -0.921875 C 23.46875 0.203125 21.113281 0.765625 18.25 0.765625 Z M 18.25 0.765625 "/></g></g></g><g fill="#ffffff" fill-opacity="1"><g transform="translate(153.895563, 215.999986)"><g><path d="M 27.859375 0.765625 C 22.773438 0.765625 18.992188 -1.140625 16.515625 -4.953125 L 15.75 -4.8125 L 15.75 0 L 5.75 0 L 5.75 -55.859375 L 15.75 -55.859375 L 15.75 -35.15625 L 16.515625 -35.015625 C 17.890625 -36.921875 19.507812 -38.328125 21.375 -39.234375 C 23.238281 -40.148438 25.472656 -40.609375 28.078125 -40.609375 C 31.304688 -40.609375 34.125 -39.847656 36.53125 -38.328125 C 38.9375 -36.816406 40.8125 -34.515625 42.15625 -31.421875 C 43.507812 -28.328125 44.1875 -24.488281 44.1875 -19.90625 C 44.1875 -15.375 43.488281 -11.5625 42.09375 -8.46875 C 40.695312 -5.375 38.769531 -3.0625 36.3125 -1.53125 C 33.851562 0 31.035156 0.765625 27.859375 0.765625 Z M 24.828125 -7.734375 C 27.765625 -7.734375 30.003906 -8.710938 31.546875 -10.671875 C 33.085938 -12.640625 33.859375 -15.71875 33.859375 -19.90625 C 33.859375 -24.125 33.085938 -27.210938 31.546875 -29.171875 C 30.003906 -31.140625 27.765625 -32.125 24.828125 -32.125 C 22.003906 -32.125 19.765625 -31.109375 18.109375 -29.078125 C 16.460938 -27.054688 15.640625 -24 15.640625 -19.90625 C 15.640625 -15.8125 16.460938 -12.757812 18.109375 -10.75 C 19.765625 -8.738281 22.003906 -7.734375 24.828125 -7.734375 Z M 24.828125 -7.734375 "/></g></g></g><g fill="#ffffff" fill-opacity="1"><g transform="translate(201.621966, 215.999986)"><g><path d="M 5.75 0 L 5.75 -55.859375 L 15.75 -55.859375 L 15.75 -34.65625 L 16.515625 -34.5 C 17.835938 -36.457031 19.460938 -37.960938 21.390625 -39.015625 C 23.316406 -40.078125 25.640625 -40.609375 28.359375 -40.609375 C 37.148438 -40.609375 41.546875 -35.625 41.546875 -25.65625 L 41.546875 0 L 31.546875 0 L 31.546875 -24.390625 C 31.546875 -27.109375 31.003906 -29.082031 29.921875 -30.3125 C 28.835938 -31.539062 27.148438 -32.15625 24.859375 -32.15625 C 22.066406 -32.15625 19.847656 -31.222656 18.203125 -29.359375 C 16.566406 -27.492188 15.75 -24.582031 15.75 -20.625 L 15.75 0 Z M 5.75 0 "/></g></g></g><g fill="#ffffff" fill-opacity="1"><g transform="translate(248.300616, 215.999986)"><g><path d="M 15.53125 0.765625 C 12.976562 0.765625 10.765625 0.296875 8.890625 -0.640625 C 7.015625 -1.585938 5.566406 -2.96875 4.546875 -4.78125 C 3.535156 -6.601562 3.03125 -8.789062 3.03125 -11.34375 C 3.03125 -13.707031 3.535156 -15.6875 4.546875 -17.28125 C 5.566406 -18.882812 7.132812 -20.195312 9.25 -21.21875 C 11.375 -22.25 14.144531 -23.039062 17.5625 -23.59375 C 19.945312 -23.976562 21.757812 -24.398438 23 -24.859375 C 24.238281 -25.316406 25.070312 -25.832031 25.5 -26.40625 C 25.9375 -26.988281 26.15625 -27.726562 26.15625 -28.625 C 26.15625 -29.894531 25.707031 -30.867188 24.8125 -31.546875 C 23.925781 -32.222656 22.445312 -32.5625 20.375 -32.5625 C 18.164062 -32.5625 16.0625 -32.066406 14.0625 -31.078125 C 12.0625 -30.085938 10.328125 -28.785156 8.859375 -27.171875 L 8.125 -27.171875 L 3.9375 -33.5 C 5.957031 -35.738281 8.425781 -37.484375 11.34375 -38.734375 C 14.257812 -39.984375 17.441406 -40.609375 20.890625 -40.609375 C 26.160156 -40.609375 29.972656 -39.488281 32.328125 -37.25 C 34.691406 -35.007812 35.875 -31.832031 35.875 -27.71875 L 35.875 -10.40625 C 35.875 -8.625 36.660156 -7.734375 38.234375 -7.734375 C 38.828125 -7.734375 39.414062 -7.84375 40 -8.0625 L 40.5 -7.90625 L 41.234375 -0.9375 C 40.671875 -0.570312 39.894531 -0.273438 38.90625 -0.046875 C 37.925781 0.179688 36.84375 0.296875 35.65625 0.296875 C 33.28125 0.296875 31.421875 -0.160156 30.078125 -1.078125 C 28.742188 -1.992188 27.785156 -3.429688 27.203125 -5.390625 L 26.453125 -5.453125 C 24.492188 -1.304688 20.851562 0.765625 15.53125 0.765625 Z M 18.71875 -6.71875 C 21.03125 -6.71875 22.878906 -7.492188 24.265625 -9.046875 C 25.648438 -10.597656 26.34375 -12.757812 26.34375 -15.53125 L 26.34375 -19.578125 L 25.65625 -19.734375 C 25.050781 -19.242188 24.257812 -18.835938 23.28125 -18.515625 C 22.3125 -18.191406 20.910156 -17.875 19.078125 -17.5625 C 16.910156 -17.195312 15.347656 -16.570312 14.390625 -15.6875 C 13.441406 -14.8125 12.96875 -13.566406 12.96875 -11.953125 C 12.96875 -10.242188 13.472656 -8.941406 14.484375 -8.046875 C 15.492188 -7.160156 16.90625 -6.71875 18.71875 -6.71875 Z M 18.71875 -6.71875 "/></g></g></g><g fill="#ffffff" fill-opacity="1"><g transform="translate(290.318649, 215.999986)"><g><path d="M 5.75 0 L 5.75 -39.859375 L 15.359375 -39.859375 L 15.359375 -34.5 L 16.109375 -34.359375 C 17.410156 -36.503906 18.9375 -38.082031 20.6875 -39.09375 C 22.4375 -40.101562 24.671875 -40.609375 27.390625 -40.609375 C 30.398438 -40.609375 32.816406 -40.007812 34.640625 -38.8125 C 36.472656 -37.625 37.8125 -35.890625 38.65625 -33.609375 L 39.421875 -33.609375 C 40.648438 -35.992188 42.234375 -37.753906 44.171875 -38.890625 C 46.109375 -40.035156 48.523438 -40.609375 51.421875 -40.609375 C 59.679688 -40.609375 63.8125 -36.007812 63.8125 -26.8125 L 63.8125 0 L 53.796875 0 L 53.796875 -25.546875 C 53.796875 -27.878906 53.335938 -29.5625 52.421875 -30.59375 C 51.515625 -31.632812 50.046875 -32.15625 48.015625 -32.15625 C 42.523438 -32.15625 39.78125 -28.484375 39.78125 -21.140625 L 39.78125 0 L 29.78125 0 L 29.78125 -25.546875 C 29.78125 -27.878906 29.3125 -29.5625 28.375 -30.59375 C 27.445312 -31.632812 25.972656 -32.15625 23.953125 -32.15625 C 21.378906 -32.15625 19.367188 -31.289062 17.921875 -29.5625 C 16.472656 -27.84375 15.75 -25.109375 15.75 -21.359375 L 15.75 0 Z M 5.75 0 "/></g></g></g></svg>