<svg xmlns="http://www.w3.org/2000/svg" xmlns:xlink="http://www.w3.org/1999/xlink" width="1500" zoomAndPan="magnify" viewBox="0 0 1125 1124.99995" height="1500" preserveAspectRatio="xMidYMid meet" version="1.0"><defs><g/></defs><g fill="#ffffff" fill-opacity="1"><g transform="translate(113.253428, 814.106902)"><g><path d="M 206.6875 6.703125 C 174.363281 6.703125 145.601562 2.71875 120.40625 -5.25 C 95.207031 -13.226562 74.207031 -23.703125 57.40625 -36.671875 C 40.613281 -49.648438 27.75 -63.898438 18.8125 -79.421875 L 69.53125 -141.296875 L 77.515625 -141.296875 C 91.546875 -120.460938 109.351562 -103.878906 130.9375 -91.546875 C 152.519531 -79.210938 177.769531 -73.046875 206.6875 -73.046875 C 231.351562 -73.046875 249.957031 -78.253906 262.5 -88.671875 C 275.050781 -99.085938 281.328125 -113.441406 281.328125 -131.734375 C 281.328125 -142.796875 279.304688 -152.046875 275.265625 -159.484375 C 271.222656 -166.929688 264.523438 -173.3125 255.171875 -178.625 C 245.816406 -183.9375 233.164062 -188.507812 217.21875 -192.34375 L 157.25 -206.046875 C 115.363281 -215.617188 84.160156 -231.515625 63.640625 -253.734375 C 43.117188 -275.960938 32.859375 -304.832031 32.859375 -340.34375 C 32.859375 -366.707031 39.445312 -389.882812 52.625 -409.875 C 65.8125 -429.863281 85.003906 -445.382812 110.203125 -456.4375 C 135.398438 -467.5 165.539062 -473.03125 200.625 -473.03125 C 236.5625 -473.03125 267.34375 -468.296875 292.96875 -458.828125 C 318.59375 -449.367188 340.234375 -434.859375 357.890625 -415.296875 L 312.265625 -352.78125 L 304.296875 -352.78125 C 291.109375 -366.601562 276.007812 -376.96875 259 -383.875 C 241.988281 -390.789062 222.53125 -394.25 200.625 -394.25 C 175.320312 -394.25 156.078125 -389.78125 142.890625 -380.84375 C 129.710938 -371.914062 123.125 -359.582031 123.125 -343.84375 C 123.125 -329.175781 127.75 -317.484375 137 -308.765625 C 146.25 -300.046875 162.25 -293.238281 185 -288.34375 L 246.25 -275.59375 C 291.539062 -266.019531 324.390625 -249.800781 344.796875 -226.9375 C 365.210938 -204.082031 375.421875 -174.257812 375.421875 -137.46875 C 375.421875 -108.34375 369.144531 -82.988281 356.59375 -61.40625 C 344.050781 -39.820312 325.128906 -23.070312 299.828125 -11.15625 C 274.523438 0.75 243.476562 6.703125 206.6875 6.703125 Z M 206.6875 6.703125 "/></g></g></g><g fill="#ffffff" fill-opacity="1"><g transform="translate(513.864852, 814.106902)"><g><path d="M 228.375 -466.328125 C 304.082031 -466.328125 361.867188 -446.765625 401.734375 -407.640625 C 441.609375 -368.515625 461.546875 -310.359375 461.546875 -233.171875 C 461.546875 -156.191406 441.609375 -98.082031 401.734375 -58.84375 C 361.867188 -19.613281 304.082031 0 228.375 0 L 60.609375 0 L 60.609375 -466.328125 Z M 222.953125 -77.515625 C 271.015625 -77.515625 306.953125 -89.789062 330.765625 -114.34375 C 354.585938 -138.90625 366.5 -178.515625 366.5 -233.171875 C 366.5 -287.816406 354.585938 -327.421875 330.765625 -351.984375 C 306.953125 -376.546875 271.015625 -388.828125 222.953125 -388.828125 L 152.78125 -388.828125 L 152.78125 -77.515625 Z M 222.953125 -77.515625 "/></g></g></g></svg>